<svg xmlns="http://www.w3.org/2000/svg" aria-hidden="true" style="position:absolute;width:0;height:0;overflow:hidden">
  <defs>
    <symbol id="icon-like" viewBox="0 0 32 32">
      <path stroke-linecap="round" stroke-linejoin="round" stroke-width="2.667"
        d="M27.787 6.147a7.345 7.345 0 0 0-5.187-2.15 7.33 7.33 0 0 0-5.187 2.15L16 7.56l-1.413-1.413a7.333 7.333 0 0 0-10.374 0 7.333 7.333 0 0 0 0 10.374L16 28.308l11.787-11.787a7.345 7.345 0 0 0 2.15-5.187 7.33 7.33 0 0 0-2.15-5.187z" />
    </symbol>
    <symbol id="icon-close" viewBox="0 0 32 32">
      <path
        d="M18.828 16 31.414 3.415A2 2 0 0 0 28.585.586L16 13.172 3.415.586A2 2 0 0 0 .586 3.415L13.172 16 .586 28.585a2 2 0 0 0 2.829 2.829L16 18.828l12.585 12.586a2 2 0 0 0 2.829-2.829L18.828 16z" />
    </symbol>
  </defs>
</svg>